<mxfile host="app.diagrams.net" modified="2023-12-12T14:36:58.642Z" agent="Mozilla/5.0 (Windows NT 10.0; Win64; x64) AppleWebKit/537.36 (KHTML, like Gecko) Chrome/120.0.0.0 Safari/537.36 Edg/120.0.0.0" etag="8Df7a_g6BF_QBOz1ocjB" version="22.1.7" type="github">
  <diagram name="Page-1" id="Qfd7dcn2wqCft64TxSxe">
    <mxGraphModel dx="1002" dy="665" grid="1" gridSize="10" guides="1" tooltips="1" connect="1" arrows="1" fold="1" page="1" pageScale="1" pageWidth="850" pageHeight="1100" math="0" shadow="0">
      <root>
        <mxCell id="0" />
        <mxCell id="1" parent="0" />
        <mxCell id="7LKRJvEwaPGZjOy5kUeM-1" value="&lt;p style=&quot;line-height: 110%; font-size: 14px;&quot;&gt;Source Database&lt;/p&gt;" style="shape=cylinder3;whiteSpace=wrap;html=1;boundedLbl=1;backgroundOutline=1;size=15;" vertex="1" parent="1">
          <mxGeometry x="140" y="302.5" width="100" height="120" as="geometry" />
        </mxCell>
        <mxCell id="7LKRJvEwaPGZjOy5kUeM-2" value="Debezium Server" style="image;points=[];aspect=fixed;html=1;align=center;shadow=0;dashed=0;image=img/lib/allied_telesis/storage/Datacenter_Server_Half_Rack_ToR.svg;" vertex="1" parent="1">
          <mxGeometry x="360" y="298" width="88.2" height="114.6" as="geometry" />
        </mxCell>
        <mxCell id="7LKRJvEwaPGZjOy5kUeM-3" value="" style="shape=image;verticalLabelPosition=bottom;labelBackgroundColor=default;verticalAlign=top;aspect=fixed;imageAspect=0;image=https://pbs.twimg.com/profile_images/790917668517752832/IkKA5JgJ_400x400.jpg;" vertex="1" parent="1">
          <mxGeometry x="439" y="292.6" width="40" height="40" as="geometry" />
        </mxCell>
        <mxCell id="7LKRJvEwaPGZjOy5kUeM-5" value="" style="shape=image;verticalLabelPosition=bottom;labelBackgroundColor=default;verticalAlign=top;aspect=fixed;imageAspect=0;image=data:image/png,iVBORw0KGgoAAAANSUhEUgAAAOEAAADhCAMAAAAJbSJIAAAAhFBMVEX///8AAABhYWHNzc3T09PCwsJKSkpycnL8/Pz19fXg4OC0tLTj4+Pa2tp/f3/n5+fv7++6urrGxsZoaGg4ODgnJycXFxeXl5eKiop3d3c+Pj4vLy+fn5+urq5PT0+oqKhZWVkeHh6FhYWQkJCbm5tFRUULCws6OjohISEpKSkYGBgyMjKhW/z/AAAIk0lEQVR4nO2caXuyOhCGiYJsoqitS91QW63t//9/h5CFCQFJ+2IRz9wfepUIYx5IJpNJ0LIQBEEQBEEQBEEQBEEQBEEQBEEQBEEQBEEQBEEQBEEQBEEQBEEQBEEQBEGQ/w3O6IOQz9570HZF7sQ7kbz1267MHQjmBDJruz6NMyUFrn7bVWqWqCgwldh2nRrF0wU+WUMd5bLcN/n/tO1qNUfMJZ0zTbHLD1/arldzbJiiV089JlGrtWqSDyYolgU9VrBosU7NwvSs8oIhK0naqlDT8G7ogCI2/L+2VqWGCfRex9rtubUqNcyYKYSx6DorObRWpabR/IrPSt7aq1LDsCdG8oIFKxi1V6WGOTFBrjgWUapz66JOMVQjUUeEbcpJ/SON5w6z0Cux8PD0hKZRONl8i4MTOGPylYfkxw5q9EkZ+edeon7SwRSAUyLQlp/68+JnYYt1/SVbTSAQoQnspBMqPkUwOezpAmGY3gD+n6RMYiikBwTkKZzecvQp/k+Uax2K7J2wvrVeydtkc+5k6+mGmma8fM0qf1gOYfGFa2KutS+aLEyq9hXRAR1Yx2eyo2bWtMRP797Omu7Sf4kfn8/Ai03k/aNxsZ39d8dYin2dGsoEhZ7nsdugnMUU9viRSzwa7I5PqY6Q+l2PrOL46DvfmcIxiSIZ5e9JicLB/RSG2ReslDI+4T/KAh6oz6sUxmT3Ts9KhaVOKkkf3HKXfeDQZ0MV5hcOyQMo5N0T9K2ZVqIoHI0CQhXuLzvLOVtkaK0n2QfMmfnZHeIXrh5B4UXrGmFeIw5U6JEwIpNU4XFvWd/HKHGtCxt5nG/P96lCX/pOLu7iXltUeM3KYPKUO9c8IlAULsjb5eXVytqiTT4uH8TbfGWfODR5p7RSnl1IG7U1nNnWnylUPc2L9qWTmwqzctLPdLzRuu+W1mC+Dc++Q/0qVbjZvMPrQL+8r8LgtBaN5h0Mh7wfgnGNdx5wDlBoZy4p3PvpkOG7tDVG6R3b9pK9FdHxxvX80WjEmwnrmZe/UWgPCMSVfoT70o08U4Tp4GJ1tDCHKUxALe6ncEWKbHklxLRJjvA8u+qCq/9NIbjubgr9V00gcy7jXX7MXH7MBcJu+PgKy6eHJLGWyvH1tN3I4FWJrB5e4Sf5Ocpa/6MrdGW1V6FtTxffuh6NvWLhwRXaotYyL9M/KGo+J6TIUjXx4ArFkijM6sO5Yvq44oIn2hdMPLZCkRxVN9HI1NOKDfULoC8ZF208tkLuL7eFYq5mIo69LRO9XpbsJ/qtwumfKGSOVNt5sS30TYofV2RnCgodxkTERfYxC25n9HZ5k+wzWhw4LNk+mMqzCwq5obDMkJUZkk+gGr+8Z4mHaHY7i3N8Bg+voxfZvs+O+D76wYYo6LMnEWjxNaMo30RB21Zu6Da8G2pdS/TEnysUAnm7B5vJCJ2Z5Wb3yie6QiGQ3331hrjGCqdVJy5/qVAI5O1nRFR2xgqFQJ64PVYbuo1TdeLidwqFQJ64KqiQ1CsUAif1hm7T8DMUAnlCWWaarqcwlPNPYtAPhUB+p8birFdqCERd9ZVrth8KgSKnKyYiXHD/DCs2nLJ2MuhPUxzFl67UCy0xx+GC7Tk0dJtGfakQKGZWIiCUg4x3UCpWOR7OCncq0gxdjRU2OB7OxI2X8d+qcJy3NnZUEdMkwj3JOeiocJzvVDNQeDumkcUGMY0gKBhRcndK965QKMjvDGvdMK0gluYNFNbEpTwINYlLOfmix1h7hLLMRGFeo7jEUGyssHZusTSdW2h3qtRPn00VBlqxaujLWGHt/JDoY1Hp/JAU68vmlQVn1TNVqBm6VBuq4Tdz/I1iQWml+c4jlmDeqd82M1UIvNykzJBrrrCpPI1ALh//o8J8KZ0p/Pi9wspcm9o8lVyb0mRUhXLUYv2wsP/vYq5QxiGlhj5+oLA6X+qDTHEhXwqXopnCV+GgPnkxX1xVF+lJvcK5GPG/+FrCUL1zuiEDKnPegcj2G+W8eYI8USqhDLVKpF+hcCc7zk4xpLhwxVFHk/q1/6hq3YIHN2brFiJk4U4i4Y8EoOwSrM7TiJCFO23WOJRm+pIbCs6j/dJgAwxYe9qA9sA9reHak0g8Mm/Dj8By3Um5PTcyUWIHyAQaAu1mkRuKiR+kj9DoZa2y9cOB/FLBzfVDMVFlToIfyE0AQmC9QrmiMISGZNUWwJBrW2/ht+WZbNpuYg2Yd9M5MJhGszTP5E/ykbZeoZgwnT1wV8mVGbpAQ6ljG9A/Hwb7jsoUsmdYso5foVC8YZTAamoYKBSGmLdJqg0daCXTR90z2KdVppD3Q30vRvkacB7KZ07CO5NSDBTKnTzM0KHS0MC3dk7afk023pcp5KO+tp8G2lOziWIXYObc/Ktao625Qmko8zb+WjUUSkPTnnWyTvFGmctWULYnSgwA9XuiEnEoZuhsCIXZtvWwZMRPckNMoQzPVpWGrgEwdBpE/ngFzFRRsa9NDJQ39rVFMzclD7ldBm8MQ1HRl/RheNmp3HHZheusICvIZy6rckPfNMMIDEWjnlv/pl3l3sQ8Vqzcm1hL4IThtIkNm/9gqLi/FEQIM1JCo/tL/wJ9kguiyYMusHN7hPVVXjh58DWJxbzVwxOXCIShaPf36ksBle9bOCAP0MH3LUTwUHxnRlFi83dmtt3TJ+cD2ntPBgusHYG3wLxgUZDcdfikXX//8GleVw90B6m9kdhtKt8DfhqFPFcHQ1cWXs8rL+kaTKH+Pv4dd5T/MTwxp/2mgsmUshvwwUH7XQz75lVdouK3TdZt16tB8pz+k/4+TflvDP18q+EjY+sCP+uv6hTab319PtlvfdH1G0XgU/0MluDZf3OP8uy/m4ggCIIgCIIgCIIgCIIgCIIgCIIgCIIgCIIgCIIgCIIgCIIgCIIgCIIgCIJ0mP8AvdRk0Zd6tPcAAAAASUVORK5CYII=;" vertex="1" parent="1">
          <mxGeometry x="600" y="300" width="125" height="125" as="geometry" />
        </mxCell>
        <mxCell id="7LKRJvEwaPGZjOy5kUeM-6" value="" style="shape=image;verticalLabelPosition=bottom;labelBackgroundColor=default;verticalAlign=top;aspect=fixed;imageAspect=0;image=data:image/png,iVBORw0KGgoAAAANSUhEUgAAAOEAAADhCAMAAAAJbSJIAAABSlBMVEX///8cJSwArGof54T//f8ApWXp9/P///76//8Aq2sAEBsAqGsAEx2kp6mVlpgaIyr4+foWHCEAsGocHCkAAAAabE0a6oT/+v8i5YT2//8d6YAaJi/9//sA5IAA64AAqWMAAAju//cRHSUeIywbJikAAA8An2LC89zP8NtE4Jc04o639dbk+ulo46ZY5Z/W+uZ/67t46rOj89FU3o+S68IR34WL5rU+347M+Obk/vTC89SP58C3991X6KKu9NFX36Bq3qXS9+xzvZoL7nsACwAddU0t1ocTzXYkEykbFCUQJiArlWUWQS0n65ENvG4dWkEWERspun0dBBomhV0UMSUqpnAfcE44y4oXChWd1b2Ehok3Oz/NzMxpamvh5edDTE66vsBdXl8sNTxZvpmJya89tIOz4NWn6NCGmphIemeT1bpDq4F1e4Ctvrhahkc+AAALpElEQVR4nO2d61/TWBrHT9tTzykFKQFzay6UlmKLWEEi1HHA6qzMuKODzjK7eEEcwd3V2f//7T5PWhFr0+bQS5J+zk/lhUCbb577SXJKiJSUlJSUlJSUlJSUlJSUlJSUlJSUlJSUlJSUlJSUlKg4Z5Tw0loJvlJCrKiPZ+Ti+I/erNn1dUoNqtGoD2jkopzQWxumqev27QbxzThd4lwr3bFtVTUdVbc3b2k86iMaoRh+0chW3VEzGTWjq6Zp1rcM/1ss2kMbiSizOKVs967t6JmO9Ixq19fwv61pQOREo41N3VHVC0IwpYrhOA14wEdpadtDPl29TAi+qt8rRX14I1Fpa8dWM2bmW+kYkk4nHBMqDmkEA3DfdnweNdMNCXa0a2uQhCCvUi3q472CuEFZc8Ozv0O7JFX1HjYsjRpG8gokpYQa23XnsdOHEMvjY2+7xDWatPoICYYb93dMU+3hnt+kVD1jOvV1gybJhBbzD7exYeomJBhdDybM+N/WdfP2GoQs5QkxJDTWnJTu6U5fsm9l6ptNAv14MhAhaRh7O/2cs5e/2t6WxYxk+ColazVb1YUQoR1wnPp9K+ZTI293Yc1N2zFNvwiKCKLR3m/gC8S1H+ekwHBG+sG2xdAuSfXuNCmPKaBfAQnbq3f3Z2Ky61uW3+TEUJwwY3dfd4YjVFV754GlxbJuUHJrQzz6ugT1P6OaG7skVkkVajUeEM5IIiWwtwn9Jt3xYK6ixLJikXMYY+hS7H7Ny4iVwEDhOkd9z6IYjzGwJYMzTUnjRxNP/2gQoVl1dLO2hkuOcYhHTq3Wpqf7897ICHVHtfWNXSvqkQMXkqhmbHs2djCqOSovxXkEXsuBuYr6fhodJ4PqfL82YHq4uky7tgdzdISlg1PauD1c/esrFZpVv5GLbnps3vFMXaxGCHiy2l6R2yxhsZ2sHTtrKnzPgxL/7TJhXzIIML3mtX86jGdj+jJNW8cVOT7RjtziGjjo/bpAi+1nD9Pc3yWtfds01VBn5cvJsXfWcSWHTc5XIfihRbOFcqeasR0s49ABre/YMNQL/K7p6A8bMFhPzlM1Vrqno8uFP0gdcv89w19ipNza8kyxBKWrk10g5+t1dDSRrGHaGy1gg/KGF2pIabPvMup3pwdGDvCA8S+Q44VqyGqNmu0vEoZLFiq2mXZtl7RHIj9dwKu0dmwH3TxsHwQ/Zu+sQZNDrXGDwukXWIOBHzRhrN0zumOIW+s7Jkoo5TxsAN/4lo85tMLQosGpF2lAIU1AANLuoRYmh9K2jleEw79UxvQXyPn4GgCrtPclDYZFVE3vYcvgGvrmV0SKf6lBb216Qos6UHtxriLj8lOt8AgM6Ph0Awj98qdjBN59wHHQY7yLkFjgbZSv3bXblTKULfFnHtv741tWLfz0tydwFtFLBxC2+VTP2yqxPg0XB7fYAjOGLR0YtPqBe21czY2l/fzL07/XVXOwDf1LvrhUr+EaR6Bw+KKlH+x+16cuvypE7YHiVq+NCZBYhcVi+eWvL57pobzUvt2gWGH65gXIP5zdeuhhiIVg9J67bm6chCvlcnnx8LeDzjgfcEzYCkAArmPCtPrebcEZY9DIGeQBlti+BRbfUH/u5vJKOjs2L2WFhfkUaPHw97qaCbwygfjt8VxAxh4ksT5X4nCMOlByaVR2bDb8Qpgq//L06NkzNaB7Bn+DFo0JXSmDcoKzZsByMuY2vQ4GTE+KsFiuHEI4BtnQrmEAii0EchiPGj/avQkhMUMApvP5SRGWyxX48vLGk94nvL6HVzrFShZOHAZlD2o9EXXvQEkr6dzkbJgqpzDlLP6+Aw70NXhwoGrPSFd6dfxi4Fz1pdyqZnv9QH+S/kaTIPQhU6nDfxxBNH4t/9CCbuwO12/Q0gYuAXRM6a/ToINGQehTQuV4cZFSVceuPbCGu/OHQ4/e2LE7xRGrKrQw+VxUhOViOVV5+cc/dbOd8OpbWN2H64o1zdC0vbo/U4ElvScQfvl0dDZMLZaL2MgBnu3dwQrIh1wQY/7NxKVtT804qnqg5PO5LgtOlNBXZfHw16Nn5v4uGHBEkyk4QnPDVp9ghejGi4AQovHnf/12DP4lWAIDxf3hcfe5AgGoRE8IxbFSfFpZfVUwjJER4kIOr6a7U0xENixWKpVyOXV4ONeuaSPoinHBgxt5RXG/D8IovLSj+dXXb8jolt4pD7BgdISp1MLS25OR2BAVS0JgXH5VGNGbxZOwWJyfWTgdzZvFk7Adju/e4A0owzprfAlTqZWltyNw1TgTYsq5zodNOXEmLBdTlZni6TQTQq9anF9+dwK18erPNcWZsKOVpb8KQ9gxAYSp1Mzy3NXfLDLCogBhsdPIXUkREb5enhewYrGYml96f+L/qrC7RkIImltYqKRE7AjhiI2ceMaJipAUXi2tiACCZleuEo6RERJy8n5JKN9czFViipCQkNM/Z4QYi8UVf64SUqSEhM3NzM7PF4sCAbmyer3ACnjPdMj3iJiQFP5aWhDLOMWZyikRSKrREqJO3gmH4/I7gXCMmhBNIRqO0AEIhGMcCAm5vizWxkHlWD0N+Q5RE/pi5OStaHWcuR7yxWNBiJPDGwjHSkXAiAkjxGbstDw7xYS4qUCnkQtZOhJG+EUQjvMhy39CCSEcX6+Gy6pJJYRwnFuZmWpCy2/kQlSOpBK2hXPVoHhMNGGh3chNMSGDP3xueXZqCZnl32k5IBwTTcg64+3Ju+VgV00y4YUYOS0GuupUEIL4X0GeOi2EZC6o/E8JIZt6wum3oSQMI0kYtYYn5MZRAODUEPLqdBNqvJXtdW/p9BCWHlWDAJNPSDnln6puWpnOTMPxgsHHF9kg+yWekGrMaH7ofQP7dBBybpy5uSPl+ZQSckKO8246F3QLe8IJOafk5nk2OMEkm5Diru0YgGllSgnBP43jqqIA4CC+hBIS8vHIzeXAgAMtmCxC3JGeUmKx1mdMMCGVJELcyNsgpPkoTIJJJCHxHzg8hhYNPXQaCfGBvo+fXSXd+yG1hBNqhFsWVgg/u4QDBFfOp92jazHYhD8EoYF78JwNaEG7CZW8mz1mLAafqBCCkEIA5rNhrXfhoY+ujXOPofAKE4dr566rKOGLBKh63oLpKha7mvYj5P62hM0PVYEC4Z+HbP7f0N7FYufdQTakEIBVdyDVJTwwtZv9FIPwu9AAG0KLJhJ+Si6vuB+asfock0DCmf8QrXWehaQoQAh8n28SFqtNvvvYEAIwlxOp8DmogMdQO+OQQb8qkHDxv+ls+AwD4QfZtnrWjHIr4d4KJryh5MIS+rMUBGArwl12A9WXMGwJBDzFPV8j/u48cWPsRxg6xwBh9VhsQ63JqQ8hZMYwNsRup3pWIlHvWR6kfoQh4zBf/dDiY9sDcmgNSQgZxs1/5GPcqXRoDUuYhRbtuy1PY6WrE+JihpL90Jz4JuWCuioh5pece96KXXH4TkN4aRYCkI5q/5Dx6eo2zH4q4abfUQMM1FUJMQBhiI9vCr0QEPa+4TuA0J80YEbajfrAQwttKEKIXbabPyZaPJYoQuh0KeC5vQDCfNrNnjXj8MlAoVUIeG4vyIYwIzHWzqDxj8GO3rxe7RGL3xLm2tcLoQJ+xF9Jkgl9nc7PDCBUlHweEkz12EhC+uyl68vdrtpF6FfAR9fi3qIFiFn43F4XY5eXKkr1HCoE/e6jExKh9vMXXc/tXSJU0vmce7TmV/g4rsSE19zCpcrxldCFFjv/yRjVHn2RqvBqaaGXDTEA47fEJKr2s0In779Ux0s2/NzCS2w8tusUIWW1n/cib/5sh2N7JcpfpMBLpHxUe57GQGxudhYagLYNlezZJD/baCJinf1QFv+AHhRnpESWh4GCcFy8objnNwlNfILpJQYtwOnijaNjQ7OMWF0LHJ3wEdP/lSL+VMrxa5rZpKSkpKSkpKSkpKSkpKSkpKSkpKSkpKSkpKSkpKLV/wFWyWdulB3CSwAAAABJRU5ErkJggg==;" vertex="1" parent="1">
          <mxGeometry x="605" y="90" width="115" height="115" as="geometry" />
        </mxCell>
        <mxCell id="7LKRJvEwaPGZjOy5kUeM-9" value="" style="shape=singleArrow;whiteSpace=wrap;html=1;arrowWidth=0.1866674804687515;arrowSize=0.244000244140625;" vertex="1" parent="1">
          <mxGeometry x="270" y="345.09999999999997" width="60" height="34.8" as="geometry" />
        </mxCell>
        <mxCell id="7LKRJvEwaPGZjOy5kUeM-10" value="" style="shape=singleArrow;whiteSpace=wrap;html=1;arrowWidth=0.1866674804687515;arrowSize=0.244000244140625;" vertex="1" parent="1">
          <mxGeometry x="500" y="345.09999999999997" width="60" height="34.8" as="geometry" />
        </mxCell>
        <mxCell id="7LKRJvEwaPGZjOy5kUeM-14" value="" style="triangle;whiteSpace=wrap;html=1;rotation=90;" vertex="1" parent="1">
          <mxGeometry x="628.85" y="213.85" width="67.55" height="84.95" as="geometry" />
        </mxCell>
        <mxCell id="7LKRJvEwaPGZjOy5kUeM-12" value="" style="editableCssRules=.*;html=1;shape=image;verticalLabelPosition=bottom;labelBackgroundColor=#ffffff;verticalAlign=top;aspect=fixed;imageAspect=0;image=data:image/svg+xml,PHN2ZyB4bWxucz0iaHR0cDovL3d3dy53My5vcmcvMjAwMC9zdmciIHhtbG5zOnY9Imh0dHBzOi8vdmVjdGEuaW8vbmFubyIgd2lkdGg9IjIwIiBoZWlnaHQ9IjEzLjUyOTk5OTczMjk3MTE5MSIgdmlld0JveD0iLTIuOTMyMDk3ODk3ODEyMDE0ZS05IC01LjI1ODAxNTA0MTgzNzk1NmUtMTUgMjAgMTMuNTI5OTk5NzMyOTcxMTkxIj4mI3hhOwk8c3R5bGUgdHlwZT0idGV4dC9jc3MiPiYjeGE7CS5zdDB7ZmlsbDojNDI4NWY0O30mI3hhOwkuc3Qxe2ZpbGw6IzY2OWRmNjt9JiN4YTsJPC9zdHlsZT4mI3hhOwk8cGF0aCBjbGFzcz0ic3QxIiBkPSJNOC44MyAxMC41OGgyLjMzdjIuNjRIOC44M3oiLz4mI3hhOwk8cGF0aCBjbGFzcz0ic3QwIiBkPSJNMTYuNDggOC42MWEuNTYuNTYgMCAwIDEtLjQtLjE3TDEyIDQuMjEgOS4yNiA3LjFhLjU3LjU3IDAgMCAxLS43Ni4wNUw2LjQyIDUuNDdsLTIuMiAyLjkyYS41Ni41NiAwIDAgMS0uNDUuMjJIMHYxLjcxYS43NS43NSAwIDAgMCAuNzQuNzVoMTguNTJhLjc1Ljc1IDAgMCAwIC43NC0uNzVWOC42MXoiLz4mI3hhOwk8cGF0aCBjbGFzcz0ic3QxIiBkPSJNMy41IDcuNWwyLjM4LTMuMTZhLjU1LjU1IDAgMCAxIC4zNy0uMjIuNjMuNjMgMCAwIDEgLjQyLjEybDIuMTIgMS43MiAyLjgtMi45NGEuNTQuNTQgMCAwIDEgLjQtLjE3aDBhLjU0LjU0IDAgMCAxIC40LjE3bDQuMzMgNC40OEgyMFYuNzRhLjc0Ljc0IDAgMCAwLS43NC0uNzRILjc0QS43NC43NCAwIDAgMCAwIC43NHY2LjgxeiIvPiYjeGE7CTxyZWN0IGNsYXNzPSJzdDAiIHg9IjYuNjciIHk9IjEyLjkyIiB3aWR0aD0iNi42NyIgaGVpZ2h0PSIuNjEiIHJ4PSIuMyIvPiYjeGE7PC9zdmc+;" vertex="1" parent="1">
          <mxGeometry x="642.63" y="230" width="40" height="28" as="geometry" />
        </mxCell>
      </root>
    </mxGraphModel>
  </diagram>
</mxfile>
